<svg width="108" height="108" viewBox="0 0 108 108" fill="none" xmlns="http://www.w3.org/2000/svg">
<rect y="-0.00195312" width="108" height="108" rx="15" fill="#E11D2E"/>
<path d="M53.994 50.6035C49.587 50.6035 45.9906 53.8872 45.9906 57.9109C45.9906 61.9346 49.587 65.2183 53.994 65.2183C58.401 65.2183 61.9974 61.9346 61.9974 57.9109C61.9974 53.8872 58.401 50.6035 53.994 50.6035ZM77.9982 57.9109C77.9982 54.8849 78.0282 51.8863 77.8421 48.8657C77.6559 45.3573 76.7794 42.2436 73.9695 39.678C71.1536 37.107 67.7493 36.3121 63.9067 36.1422C60.5924 35.9723 57.3082 35.9997 54 35.9997C50.6857 35.9997 47.4015 35.9723 44.0933 36.1422C40.2507 36.3121 36.8404 37.1125 34.0305 39.678C31.2146 42.2491 30.344 45.3573 30.1579 48.8657C29.9718 51.8917 30.0018 54.8904 30.0018 57.9109C30.0018 60.9314 29.9718 63.9355 30.1579 66.956C30.344 70.4645 31.2206 73.5782 34.0305 76.1437C36.8464 78.7148 40.2507 79.5096 44.0933 79.6796C47.4075 79.8495 50.6917 79.8221 54 79.8221C57.3142 79.8221 60.5984 79.8495 63.9067 79.6796C67.7493 79.5096 71.1596 78.7093 73.9695 76.1437C76.7854 73.5727 77.6559 70.4645 77.8421 66.956C78.0342 63.9355 77.9982 60.9369 77.9982 57.9109ZM53.994 69.1543C47.1794 69.1543 41.6797 64.1329 41.6797 57.9109C41.6797 51.6889 47.1794 46.6675 53.994 46.6675C60.8086 46.6675 66.3083 51.6889 66.3083 57.9109C66.3083 64.1329 60.8086 69.1543 53.994 69.1543ZM66.8126 48.8328C65.2216 48.8328 63.9367 47.6597 63.9367 46.207C63.9367 44.7543 65.2216 43.5812 66.8126 43.5812C68.4037 43.5812 69.6886 44.7543 69.6886 46.207C69.689 46.552 69.615 46.8936 69.4706 47.2124C69.3263 47.5312 69.1144 47.8208 68.8473 48.0647C68.5801 48.3086 68.2629 48.502 67.9138 48.6338C67.5646 48.7656 67.1904 48.8333 66.8126 48.8328Z" fill="white"/>
</svg>
